<?xml version="1.0" standalone="no"?>
<!DOCTYPE svg PUBLIC "-//W3C//DTD SVG 20010904//EN"
    "http://www.w3.org/TR/2001/REC-SVG-20010904/DTD/svg10.dtd">
<svg version="1.0" xmlns="http://www.w3.org/2000/svg"
     width="500.000000pt" height="500.000000pt" viewBox="0 0 500.000000 500.000000"
     preserveAspectRatio="xMidYMid meet">
    <metadata>
        Created by potrace 1.14, written by Peter Selinger 2001-2017
    </metadata>
    <g transform="translate(0.000000,500.000000) scale(0.100000,-0.100000)"
       fill="#000000" stroke="none">
        <path d="M1990 3916 c-89 -208 -139 -532 -122 -789 4 -60 4 -111 0 -113 -4 -3
-47 0 -95 7 -50 6 -147 9 -227 7 -161 -6 -256 -31 -361 -93 -68 -41 -129 -96
-118 -106 5 -4 73 -9 153 -12 88 -3 169 -12 205 -22 89 -24 232 -97 300 -152
190 -155 314 -418 346 -739 8 -72 16 -113 23 -111 20 7 86 144 125 262 59 178
81 297 88 476 8 202 -1 259 -92 580 -100 349 -137 518 -181 817 -7 44 -21 40
-44 -12z"/>
        <path d="M1250 3941 c-101 -33 -194 -113 -241 -208 -21 -42 -24 -62 -24 -158
0 -106 1 -112 34 -173 41 -75 103 -135 179 -170 50 -24 70 -27 157 -27 88 0
107 3 157 27 74 34 152 112 186 186 24 50 27 69 27 157 0 87 -3 107 -27 157
-35 76 -95 138 -170 179 -57 30 -72 33 -158 36 -52 1 -106 -1 -120 -6z"/>
        <path d="M3039 3826 c-71 -27 -115 -55 -160 -103 -95 -98 -132 -223 -105 -352
18 -86 48 -141 111 -203 88 -87 219 -129 338 -108 89 16 139 42 203 102 205
194 152 527 -103 646 -48 22 -74 27 -153 29 -61 2 -108 -2 -131 -11z"/>
        <path d="M2348 3375 c-2 -3 22 -58 53 -122 102 -206 143 -388 143 -643 1 -172
-8 -245 -51 -415 -38 -155 -128 -369 -209 -497 -13 -20 -24 -40 -24 -43 0 -14
33 0 120 52 333 198 477 321 788 674 225 255 459 411 761 510 64 21 117 42
119 47 4 13 -159 60 -253 73 -240 34 -514 -42 -766 -211 -51 -33 -93 -59 -95
-57 -2 2 -30 58 -64 125 -94 193 -156 279 -268 374 -73 62 -238 149 -254 133z"/>
        <path d="M792 2623 c-197 -308 201 -794 958 -1174 943 -473 2059 -579 2384
-228 70 76 90 131 84 242 -8 146 -79 277 -246 449 -170 176 -492 412 -492 362
0 -4 22 -32 48 -63 221 -259 270 -479 146 -654 -36 -51 -131 -117 -212 -147
-196 -74 -522 -81 -842 -19 -579 113 -1192 426 -1520 776 -136 146 -231 305
-245 415 -15 106 -20 109 -63 41z"/>
    </g>
</svg>
