<?xml version="1.0" ?><svg data-name="Layer 1" id="Layer_1" viewBox="0 0 128 128" xmlns="http://www.w3.org/2000/svg"><title/><path d="M80.59135,95.08363a18.39145,18.39145,0,0,0-1.56647-2.40405c-1.37646-1.90869-2.941-4.07007-3.09692-7.06476-.10211-1.95709-.12366-2.30658-1.113-3.4303-.951-1.08014-2.52356-1.55792-3.56439-2.59125-1.65521-1.64319-1.92285-4.18665-3.60242-5.74225a30.36821,30.36821,0,0,0-3.02063-1.86157,10.47685,10.47685,0,0,1-2.47467-2.51013c-1.60364-2.30225-3.62549-2.81421-6.258-3.60187-2.968-.89264-6.32831-1.898-9.14026-4.3927A14.64112,14.64112,0,0,0,38.136,58.3932c-.65051.05377-1.29028.11285-1.91937.172a28.05544,28.05544,0,0,1-8.28534-.06989,5.63235,5.63235,0,0,0-.7533-.09192,1.235,1.235,0,0,0-.55328,2.37634l.04309.01678c.75275.29028,1.81189,1.13446,1.83344,1.76355a26.93791,26.93791,0,0,0,.36017,5.15607,12.10438,12.10438,0,0,1-1.70972,9.72632l-.10217.14508a11.45742,11.45742,0,0,0-1.72406,3.73114c-1.48486,5.75531-1.63129,6.31445-3.41052,13.189q-1.66946,6.47607,4.65607,8.48419c3.48938,1.10223,6.97339,2.23132,10.47894,3.2851a10.01262,10.01262,0,0,0,3.37653.60223,27.03741,27.03741,0,0,1,12.28552,2.113,36.7934,36.7934,0,0,0,6.86578,2.22052,14.92351,14.92351,0,0,0,1.55927.22046,4.1588,4.1588,0,0,0,4.5163-3.84967v-.03223c.16125-2.03772-.00537-4.99481,1.20972-5.89276,3.312-2.46246,6.94659-5.24213,11.72632-2.99469.70435.33325,1.699.01611,2.63989-.11829-.00537-.15057-.01605-.29572-.02142-.44092A7.03532,7.03532,0,0,0,80.59135,95.08363Z"/><path d="M103.171,87.19545h-.0376c-3.054-.09131-3.87115-1.08069-3.39258-4.01086.15057-.93555.285-1.8764.414-2.75281a2.11776,2.11776,0,0,0-1.07532-2.156l-.03766-.02155a2.12411,2.12411,0,0,1-.29041-3.51624c1.38721-1.12372,2.57544-2.52167,2.07007-3.70453a74.47077,74.47077,0,0,1-2.29041-7.13464,6.12626,6.12626,0,0,0-1.40338-2.44635A7.4044,7.4044,0,0,1,95.9503,52.807c.371-.68286.75806-1.37646,1.13983-2.05389a15.82876,15.82876,0,0,1,4.62921-4.9303,3.42534,3.42534,0,0,0,1.17743-2.6131c.45709-3.46246.0108-7.26367,1.34955-10.47888a5.30335,5.30335,0,0,0-5.99481-7.24762c-.03772.01074-.07532.01611-.11292.02692a3.35238,3.35238,0,0,1-1.027.02686,6.23326,6.23326,0,0,1-3.63989-1.6936c-1.29578-1.20972-3.43567-3.027-5.11853-3.5163C80.59477,18.06892,73.62138,14.55263,67.98673,8.59a54.47439,54.47439,0,0,0-5.91425-5.06476,2.89067,2.89067,0,0,0-2.06458-.67206c-.94092.21509-1.87646.4624-2.812.72046a6.46422,6.46422,0,0,0-4.66681,7.14008l.00537.05383A2.3115,2.3115,0,0,1,50.873,13.63326c-2.22583.91937-4.34955,2.09149-6.58624,2.99469a5.838,5.838,0,0,0-2.98938,1.98932A7.39975,7.39975,0,0,1,36.05528,22.354c-.28491.043-.57532.07526-.86029.0968A3.92582,3.92582,0,0,1,32.34538,21.327c-.02679-.02686-.05371-.05908-.08057-.08594a3.71043,3.71043,0,0,0-6.30133,3.54315,9.86661,9.86661,0,0,1,.42468,2.22589,2.63223,2.63223,0,0,1-3.32275,2.67749c-.01074,0-.01611-.00537-.02679-.00537a28.67757,28.67757,0,0,0-18.576.34412c-.1452.05377-.29034.11292-.42474.17206C-.129,32.091.04838,38.12886,4.21519,40.02681A112.9529,112.9529,0,0,1,16.07591,45.968a10.83067,10.83067,0,0,1,4.72064,6.60242l.00366.023a1.355,1.355,0,0,0,1.69885,1.08575,14.20966,14.20966,0,0,1,6.43762-.469c3.75439.71051,7.54474-.37042,11.32758.037A17.93683,17.93683,0,0,1,50.3245,57.46285c1.925,1.70453,4.44659,2.46265,7.11877,3.26917a42.58237,42.58237,0,0,1,4.57007,1.56451c3.26111,1.3894,4.535,4.8913,7.64984,6.53406C72.48185,70.317,72.782,73.007,74.68931,75.27632c1.16058,1.38092,2.97211,2,4.16345,3.35425,2.11841,2.40338,2.30658,4.1131,2.441,6.70465.07532,1.40863,1.0108,2.699,2.09149,4.19373a17.792,17.792,0,0,1,2.62915,4.59692A13.48745,13.48745,0,0,1,86.579,97.8196a11.90233,11.90233,0,0,0,.20422,1.95709c.08606.36023.16675.72583.24731,1.08606l.00421.00653a8.79552,8.79552,0,0,0,10.78662-.53882c2.05927-1.85492,3.98944-3.8819,6.17767-5.57013a6.89649,6.89649,0,0,0,2.26355-2.94092A3.39883,3.39883,0,0,0,103.171,87.19545Z"/><path d="M125.46018,96.71779l-.22986-.30249a7.55385,7.55385,0,0,1-1.53979-4.5708V88.35774a2.068,2.068,0,0,0-4.09131-.42719l-.42578,2.017a7.55409,7.55409,0,0,1-4.9201,5.57806,7.55685,7.55685,0,0,0-.95447.4057l-1.69806.864a5.12837,5.12837,0,0,0-2.80286,4.5708,5.12891,5.12891,0,0,1-.13855,1.184l-.50391,2.1236a5.58886,5.58886,0,0,0,.84991,4.48187,7.59431,7.59431,0,0,1,1.36017,4.337,7.328,7.328,0,0,0,1.42859,4.347l2.22925,3.02539,2.83533,3.22913a3.17154,3.17154,0,0,0,5.52295-1.6441l.02045-.14331a11.147,11.147,0,0,1,.98871-3.25336l.33118-.6889a11.14592,11.14592,0,0,0,1.10071-4.82971,11.14555,11.14555,0,0,1,.80878-4.1684l.55975-1.38818A11.14652,11.14652,0,0,0,127,103.80971v-2.52112A7.55391,7.55391,0,0,0,125.46018,96.71779Z"/></svg>